<svg xmlns="http://www.w3.org/2000/svg" width="1600" height="650" viewBox="0 0 1600 650" role="img" aria-labelledby="title desc">
<title id="title">Co składa się na 33%?</title>
<desc id="desc">33% to suma odpowiedzi „raz lub dwa”, „okazjonalnie” i „często”.</desc>
<rect width="1600" height="650" rx="40" fill="#F7F3EA"/>
<text x="160" y="116" font-size="58" font-family="system-ui, sans-serif" font-weight="700" fill="#26231F">Co składa się na 33%?</text>
<text x="160" y="166" font-size="27" font-family="system-ui, sans-serif" fill="#536965">Wśród 758 użytkowników chatbotów jako cyfrowych towarzyszy</text>
<text x="1410" y="170" text-anchor="end" font-size="96" font-family="system-ui, sans-serif" font-weight="700" fill="#C3944E">33%</text>
<rect x="160" y="300" width="1280" height="86" rx="22" fill="#E5DED4"/>
<clipPath id="barclip"><rect x="160" y="300" width="1280" height="86" rx="22"/></clipPath>
<g clip-path="url(#barclip)"><rect x="160.00" y="300" width="844.80" height="86" fill="#8C9893"/><text x="582.40" y="355" text-anchor="middle" font-size="28" font-family="system-ui, sans-serif" font-weight="700" fill="#FBFAF6">66%</text><rect x="1004.80" y="300" width="217.60" height="86" fill="#536965"/><text x="1113.60" y="355" text-anchor="middle" font-size="28" font-family="system-ui, sans-serif" font-weight="700" fill="#FBFAF6">17%</text><rect x="1222.40" y="300" width="153.60" height="86" fill="#C3944E"/><text x="1299.20" y="355" text-anchor="middle" font-size="28" font-family="system-ui, sans-serif" font-weight="700" fill="#26231F">12%</text><rect x="1376.00" y="300" width="51.20" height="86" fill="#26231F"/><text x="1401.60" y="355" text-anchor="middle" font-size="28" font-family="system-ui, sans-serif" font-weight="700" fill="#FBFAF6">4%</text><rect x="1427.20" y="300" width="12.80" height="86" fill="#D8D1C6"/></g>
<rect x="170" y="450" width="22" height="22" rx="5" fill="#8C9893"/><text x="208" y="470" font-size="25" font-family="system-ui, sans-serif" fill="#26231F">Nigdy - 66%</text><rect x="600" y="450" width="22" height="22" rx="5" fill="#536965"/><text x="638" y="470" font-size="25" font-family="system-ui, sans-serif" fill="#26231F">Raz lub dwa - 17%</text><rect x="1030" y="450" width="22" height="22" rx="5" fill="#C3944E"/><text x="1068" y="470" font-size="25" font-family="system-ui, sans-serif" fill="#26231F">Okazjonalnie - 12%</text><rect x="170" y="518" width="22" height="22" rx="5" fill="#26231F"/><text x="208" y="538" font-size="25" font-family="system-ui, sans-serif" fill="#26231F">Często - 4%</text><rect x="600" y="518" width="22" height="22" rx="5" fill="#D8D1C6"/><text x="638" y="538" font-size="25" font-family="system-ui, sans-serif" fill="#26231F">Brak odpowiedzi - 1%</text>
<text x="160" y="615" font-size="24" font-family="system-ui, sans-serif" fill="#8C9893">33% to suma odpowiedzi „raz lub dwa”, „okazjonalnie” i „często”.</text>
</svg>