<svg xmlns="http://www.w3.org/2000/svg" viewBox="0 0 64 64" role="img" aria-label="Prompted Psyche">
  <rect width="64" height="64" rx="10" fill="#10100e"/>
  <path d="M15 17h16c8 0 13 4.4 13 11.3 0 7-5 11.4-13 11.4h-7v8.3h-9V17Zm15.6 15.2c3 0 4.7-1.4 4.7-3.9s-1.7-3.9-4.7-3.9H24v7.8h6.6Z" fill="#ede9dd"/>
  <path d="M42.5 45.2c4.1 0 6.7-2 6.7-5.1 0-3.2-2.4-4.6-7.2-5.6l-3.8-.8 1.7-7.1 3.4.7c8.9 1.8 13.2 5.7 13.2 12.4 0 7.5-5.8 12.4-14.4 12.4-5.1 0-9.8-1.4-13.2-4.1l3.5-6.6c2.9 2.4 6.3 3.8 10.1 3.8Z" fill="#c4764c"/>
</svg>
