<svg xmlns="http://www.w3.org/2000/svg" viewBox="0 0 64 64" role="img" aria-labelledby="title">
  <title id="title">Prompted Psyche</title>
  <rect width="64" height="64" rx="14" fill="#07111d"/>
  <g fill="none" stroke="#f8fafc" stroke-linecap="round" stroke-width="4">
    <path d="M15 23v-8h8"/>
    <path d="M41 15h8v8"/>
    <path d="M49 41v8h-8"/>
    <path d="M23 49h-8v-8"/>
    <path d="M24 25v18"/>
  </g>
  <g fill="#f8fafc">
    <circle cx="34" cy="22" r="1.1" opacity=".25"/>
    <circle cx="38" cy="23" r="1.3" opacity=".42"/>
    <circle cx="42" cy="25" r="1.4" opacity=".7"/>
    <circle cx="45" cy="29" r="1.3" opacity=".9"/>
    <circle cx="46" cy="33" r="1" opacity=".95"/>
    <circle cx="43" cy="37" r="1.2" opacity=".86"/>
    <circle cx="39" cy="40" r="1.2" opacity=".62"/>
    <circle cx="35" cy="42" r="1" opacity=".35"/>
    <circle cx="36" cy="27" r=".9" opacity=".35"/>
    <circle cx="40" cy="29" r="1.1" opacity=".65"/>
    <circle cx="43" cy="32" r="1.1" opacity=".95"/>
    <circle cx="40" cy="35" r="1" opacity=".7"/>
    <circle cx="36" cy="37" r=".9" opacity=".4"/>
  </g>
</svg>
