<svg xmlns="http://www.w3.org/2000/svg" viewBox="0 0 128 128" role="img" aria-labelledby="title">
  <title id="title">Prompted Psyche icon</title>
  <g fill="none" stroke="#07111d" stroke-linecap="round" stroke-width="7">
    <path d="M24 42V24h18"/>
    <path d="M86 24h18v18"/>
    <path d="M104 86v18H86"/>
    <path d="M42 104H24V86"/>
    <path d="M43 48v32"/>
  </g>
  <g fill="#07111d">
    <circle cx="62" cy="31" r="1.5" opacity=".16"/>
    <circle cx="69" cy="32" r="1.7" opacity=".2"/>
    <circle cx="76" cy="35" r="2" opacity=".28"/>
    <circle cx="83" cy="39" r="2.2" opacity=".42"/>
    <circle cx="88" cy="45" r="2.3" opacity=".62"/>
    <circle cx="92" cy="52" r="2.1" opacity=".78"/>
    <circle cx="97" cy="58" r="1.8" opacity=".9"/>
    <circle cx="99" cy="64" r="1.7" opacity=".95"/>
    <circle cx="95" cy="69" r="1.9" opacity=".92"/>
    <circle cx="91" cy="75" r="2.1" opacity=".8"/>
    <circle cx="85" cy="81" r="2.1" opacity=".62"/>
    <circle cx="78" cy="86" r="1.9" opacity=".44"/>
    <circle cx="70" cy="91" r="1.6" opacity=".28"/>
    <circle cx="62" cy="96" r="1.4" opacity=".18"/>
    <circle cx="55" cy="36" r="1.1" opacity=".12"/>
    <circle cx="63" cy="39" r="1.3" opacity=".18"/>
    <circle cx="71" cy="41" r="1.6" opacity=".28"/>
    <circle cx="79" cy="45" r="1.9" opacity=".46"/>
    <circle cx="85" cy="51" r="2" opacity=".66"/>
    <circle cx="90" cy="57" r="1.9" opacity=".84"/>
    <circle cx="92" cy="64" r="1.8" opacity=".95"/>
    <circle cx="89" cy="70" r="1.9" opacity=".82"/>
    <circle cx="83" cy="76" r="1.9" opacity=".62"/>
    <circle cx="76" cy="81" r="1.7" opacity=".42"/>
    <circle cx="68" cy="86" r="1.4" opacity=".26"/>
    <circle cx="60" cy="91" r="1.1" opacity=".16"/>
    <circle cx="56" cy="45" r=".9" opacity=".13"/>
    <circle cx="65" cy="47" r="1.2" opacity=".22"/>
    <circle cx="73" cy="50" r="1.5" opacity=".36"/>
    <circle cx="80" cy="55" r="1.8" opacity=".6"/>
    <circle cx="84" cy="61" r="1.7" opacity=".8"/>
    <circle cx="85" cy="67" r="1.6" opacity=".82"/>
    <circle cx="80" cy="72" r="1.7" opacity=".62"/>
    <circle cx="73" cy="77" r="1.4" opacity=".4"/>
    <circle cx="65" cy="82" r="1.1" opacity=".22"/>
    <circle cx="58" cy="84" r=".9" opacity=".14"/>
    <circle cx="57" cy="55" r=".8" opacity=".16"/>
    <circle cx="66" cy="56" r="1.1" opacity=".28"/>
    <circle cx="74" cy="59" r="1.4" opacity=".5"/>
    <circle cx="78" cy="64" r="1.5" opacity=".72"/>
    <circle cx="75" cy="69" r="1.4" opacity=".55"/>
    <circle cx="68" cy="73" r="1.1" opacity=".3"/>
    <circle cx="59" cy="75" r=".8" opacity=".17"/>
  </g>
</svg>
